<?xml version="1.0" standalone="no"?>
<!DOCTYPE svg PUBLIC "-//W3C//DTD SVG 20010904//EN"
 "http://www.w3.org/TR/2001/REC-SVG-20010904/DTD/svg10.dtd">
<svg version="1.0" xmlns="http://www.w3.org/2000/svg"
 width="1024.000000pt" height="1024.000000pt" viewBox="0 0 1024.000000 1024.000000"
 preserveAspectRatio="xMidYMid meet">

<g transform="translate(0.000000,1024.000000) scale(0.100000,-0.100000)"
fill="#000000" stroke="none">
<path d="M4900 10234 c-686 -61 -1235 -273 -1760 -680 -142 -110 -397 -362
-514 -509 -375 -469 -597 -995 -682 -1610 -25 -182 -25 -607 0 -790 45 -328
131 -639 253 -908 52 -113 2917 -5727 2923 -5727 4 0 2308 4507 2761 5400 170
338 204 414 271 610 284 836 201 1788 -224 2555 -152 275 -326 505 -557 735
-508 506 -1123 807 -1851 905 -110 15 -523 28 -620 19z m410 -1284 c229 -24
435 -82 639 -180 608 -294 1011 -868 1081 -1540 67 -652 -219 -1312 -743
-1712 -968 -739 -2362 -408 -2893 687 -328 675 -235 1462 242 2052 398 491
1043 758 1674 693z"/>
</g>
</svg>
